<?xml version="1.0"?>
<svg xmlns="http://www.w3.org/2000/svg" xmlns:xlink="http://www.w3.org/1999/xlink" version="1.1" id="Capa_1" x="0px" y="0px" viewBox="0 0 389.658 389.658" style="enable-background:new 0 0 389.658 389.658;" xml:space="preserve" width="512px" height="512px" class=""><g><script xmlns="" id="tinyhippos-injected" class="active-path" style=""/><g>
	<path d="M352.271,232.85c-4.143,0-7.5,3.357-7.5,7.5v59.937H229.661c-4.143,0-7.5,3.357-7.5,7.5s3.357,7.5,7.5,7.5h36.65   c3.182,13.511,15.331,23.603,29.8,23.603s26.618-10.091,29.801-23.603h26.358c4.143,0,7.5-3.357,7.5-7.5V240.35   C359.771,236.207,356.413,232.85,352.271,232.85z M296.111,323.889c-6.088,0-11.359-3.508-13.936-8.603h27.873   C307.472,320.38,302.2,323.889,296.111,323.889z" data-original="#000000" class="active-path" fill="#F0F0F0"/>
	<path d="M142.785,299.817h-18.493V186.092v-42.129c0-13.593,11.059-24.651,24.652-24.651h44.019c4.143,0,7.5-3.357,7.5-7.5   s-3.357-7.5-7.5-7.5h-44.019c-21.864,0-39.652,17.787-39.652,39.651v34.629H65.955c-14.291,0-27.303,7.261-34.809,19.421   L1.118,246.664c-0.018,0.03-0.031,0.063-0.049,0.093c-0.151,0.252-0.289,0.512-0.411,0.782c-0.009,0.02-0.02,0.04-0.029,0.06   c-0.129,0.294-0.237,0.598-0.328,0.911c-0.014,0.049-0.025,0.099-0.038,0.148c-0.068,0.255-0.123,0.514-0.164,0.778   c-0.012,0.074-0.024,0.148-0.034,0.222C0.027,249.968,0,250.281,0,250.602c0,0,0,0.001,0,0.001l0,0.001v56.714   c0,4.143,3.358,7.5,7.5,7.5h26.414c3.009,13.747,15.273,24.071,29.909,24.071s26.9-10.325,29.909-24.071h23.06h25.993   c4.142,0,7.5-3.357,7.5-7.5S146.927,299.817,142.785,299.817z M15,258.102h53.175c16.313,0,29.583-13.271,29.583-29.584v-0.445   c0-16.313-13.271-29.584-29.583-29.584c-4.142,0-7.5,3.357-7.5,7.5s3.358,7.5,7.5,7.5c8.042,0,14.583,6.542,14.583,14.584v0.445   c0,8.042-6.542,14.584-14.583,14.584H20.944l22.966-37.21c4.753-7.702,12.994-12.3,22.044-12.3h43.337v106.226H93.25   c-3.677-12.787-15.473-22.173-29.427-22.173s-25.749,9.386-29.427,22.173H15V258.102z M63.823,323.889   c-8.614,0-15.622-7.008-15.622-15.622s7.008-15.622,15.622-15.622s15.622,7.008,15.622,15.622S72.437,323.889,63.823,323.889z" data-original="#000000" class="active-path" fill="#F0F0F0"/>
	<path d="M184.325,277.645c-16.885,0-30.622,13.737-30.622,30.622s13.737,30.622,30.622,30.622s30.622-13.737,30.622-30.622   S201.21,277.645,184.325,277.645z M184.325,323.889c-8.614,0-15.622-7.008-15.622-15.622s7.008-15.622,15.622-15.622   c8.614,0,15.622,7.008,15.622,15.622S192.938,323.889,184.325,323.889z" data-original="#000000" class="active-path" fill="#F0F0F0"/>
	<path d="M302.315,50.77c-48.16,0-87.342,39.182-87.342,87.343s39.182,87.343,87.342,87.343c48.161,0,87.343-39.182,87.343-87.343   S350.477,50.77,302.315,50.77z M302.315,210.455c-39.89,0-72.342-32.453-72.342-72.343s32.452-72.343,72.342-72.343   s72.343,32.453,72.343,72.343S342.205,210.455,302.315,210.455z" data-original="#000000" class="active-path" fill="#F0F0F0"/>
	<path d="M309.815,135.006V87.85c0-4.143-3.357-7.5-7.5-7.5s-7.5,3.357-7.5,7.5v50.263c0,1.989,0.79,3.896,2.196,5.304   l21.443,21.443c1.465,1.464,3.385,2.196,5.304,2.196s3.839-0.732,5.304-2.196c2.929-2.93,2.929-7.678,0-10.607L309.815,135.006z" data-original="#000000" class="active-path" fill="#F0F0F0"/>
</g></g> </svg>
